<?xml version="1.0" standalone="no"?>
<!DOCTYPE svg PUBLIC "-//W3C//DTD SVG 20010904//EN"
 "http://www.w3.org/TR/2001/REC-SVG-20010904/DTD/svg10.dtd">
<svg version="1.0" xmlns="http://www.w3.org/2000/svg"
 viewBox="0 0 2600.000000 2600.000000"
 preserveAspectRatio="xMidYMid meet">
<metadata>
Created by potrace 1.15, written by Peter Selinger 2001-2017
</metadata>
<g transform="translate(0.000000,2600.000000) scale(0.100000,-0.100000)"
fill="current" stroke="none">
<path d="M7100 23820 c0 -6 812 -1271 1805 -2811 993 -1540 1805 -2802 1805
-2805 0 -2 -927 -4 -2060 -4 l-2060 0 0 -7650 0 -7650 6690 0 6690 0 0 7650 0
7650 -2194 2 -2195 3 1810 2807 c995 1544 1809 2810 1809 2813 0 3 -334 4
-742 3 l-743 -3 -1811 -2810 -1811 -2810 -944 -3 -945 -2 -1814 2815 -1815
2815 -737 0 c-492 0 -738 -3 -738 -10z m4634 -7201 c394 -612 477 -746 473
-768 -3 -14 -13 -64 -22 -111 -25 -122 -16 -302 20 -425 102 -347 367 -599
722 -687 123 -30 322 -31 443 -1 369 93 640 364 733 733 30 120 29 322 -2 434
l-21 79 42 68 c24 37 239 371 478 743 l435 675 2048 1 2047 0 0 -6815 0 -6815
-5850 0 -5850 0 0 6815 0 6815 1913 0 1914 0 477 -741z m1614 431 c-110 -171
-202 -309 -203 -308 -7 7 -375 580 -385 598 -11 20 -7 20 389 20 l400 0 -201
-310z"/>
<path d="M14097 14149 c-196 -29 -386 -109 -542 -229 -71 -55 -193 -183 -247
-260 -25 -36 -226 -350 -448 -699 l-403 -633 -41 64 c-23 35 -93 145 -156 243
-90 143 -133 199 -205 271 -130 131 -257 207 -431 260 -82 26 -103 28 -259 28
-148 1 -180 -2 -249 -22 -192 -55 -317 -130 -456 -271 -95 -95 -103 -108
-1373 -2103 -702 -1103 -1280 -2013 -1283 -2022 -6 -15 443 -16 5145 -16 2833
0 5151 2 5151 4 0 7 -3067 4823 -3121 4902 -100 144 -303 316 -455 385 -201
91 -430 127 -627 98z m276 -859 c27 -13 65 -42 85 -65 33 -35 2312 -3603 2312
-3619 0 -3 -1136 -6 -2525 -6 -1389 0 -2525 2 -2525 5 0 15 2286 3594 2313
3623 17 18 59 46 92 63 53 27 68 30 130 27 49 -3 85 -11 118 -28z m-2936 -952
c24 -14 97 -121 278 -405 l245 -385 -611 -962 c-336 -528 -617 -967 -623 -974
-9 -9 -139 -12 -609 -10 l-596 3 849 1335 c467 734 862 1350 877 1368 31 37
95 64 133 55 14 -3 39 -14 57 -25z"/>
<path d="M8197 7634 c-4 -4 -7 -677 -7 -1496 l0 -1488 235 0 235 0 -2 1493 -3
1492 -226 3 c-124 1 -228 -1 -232 -4z"/>
<path d="M8910 6145 l0 -1495 120 0 120 0 -2 1493 -3 1492 -117 3 -118 3 0
-1496z"/>
<path d="M9400 6145 l0 -1495 480 0 480 0 0 1495 0 1495 -480 0 -480 0 0
-1495z"/>
<path d="M10620 6145 l0 -1495 340 0 340 0 0 1495 0 1495 -340 0 -340 0 0
-1495z"/>
<path d="M11557 7633 c-4 -3 -7 -676 -7 -1495 l0 -1488 235 0 235 0 0 1495 0
1495 -228 0 c-126 0 -232 -3 -235 -7z"/>
<path d="M12277 7633 c-4 -3 -7 -676 -7 -1495 l0 -1488 120 0 120 0 0 1495 0
1495 -113 0 c-63 0 -117 -3 -120 -7z"/>
<path d="M12767 7634 c-4 -4 -7 -677 -7 -1496 l0 -1488 235 0 235 0 -2 1493
-3 1492 -226 3 c-124 1 -228 -1 -232 -4z"/>
<path d="M13480 6145 l0 -1495 120 0 120 0 -2 1493 -3 1492 -117 3 -118 3 0
-1496z"/>
<path d="M13970 6145 l0 -1495 120 0 120 0 -2 1493 -3 1492 -117 3 -118 3 0
-1496z"/>
<path d="M14460 6145 l0 -1495 230 0 230 0 0 1495 0 1495 -230 0 -230 0 0
-1495z"/>
<path d="M15180 6145 l0 -1495 340 0 340 0 0 1495 0 1495 -340 0 -340 0 0
-1495z"/>
<path d="M16117 7633 c-4 -3 -7 -676 -7 -1495 l0 -1488 235 0 235 0 0 1495 0
1495 -228 0 c-126 0 -232 -3 -235 -7z"/>
<path d="M16837 7633 c-4 -3 -7 -676 -7 -1495 l0 -1488 120 0 120 0 0 1495 0
1495 -113 0 c-63 0 -117 -3 -120 -7z"/>
<path d="M17327 7633 c-4 -3 -7 -676 -7 -1495 l0 -1488 485 0 485 0 -2 1493
-3 1492 -476 3 c-261 1 -479 -1 -482 -5z"/>
</g>
</svg>
