<?xml version="1.0" standalone="no"?>
<!DOCTYPE svg PUBLIC "-//W3C//DTD SVG 20010904//EN"
 "http://www.w3.org/TR/2001/REC-SVG-20010904/DTD/svg10.dtd">
<svg version="1.0" xmlns="http://www.w3.org/2000/svg"
 viewBox="0 0 2600.000000 2600.000000"
 preserveAspectRatio="xMidYMid meet">
<metadata>
Created by potrace 1.15, written by Peter Selinger 2001-2017
</metadata>
<g transform="translate(0.000000,2600.000000) scale(0.100000,-0.100000)"
fill="current" stroke="none">
<path d="M5095 21150 c-222 -45 -404 -217 -460 -435 -13 -53 -15 -650 -15
-5385 0 -4715 2 -5333 15 -5385 25 -99 81 -198 151 -267 53 -53 476 -324 2665
-1708 3125 -1975 2811 -1778 2882 -1806 84 -33 197 -47 283 -35 92 14 155 36
239 86 88 52 5280 3334 5356 3386 118 80 203 202 239 345 20 76 20 132 20
5384 0 5252 0 5308 -20 5384 -28 111 -73 190 -155 271 -81 82 -160 127 -271
155 -76 20 -130 20 -5483 19 -2973 -1 -5424 -5 -5446 -9z m5520 -2911 c82 -15
169 -62 226 -120 36 -37 68 -89 123 -202 41 -84 229 -466 419 -849 290 -586
349 -698 369 -703 12 -2 428 -63 923 -135 495 -72 916 -135 935 -142 175 -55
290 -213 290 -398 0 -85 -21 -155 -68 -224 -21 -31 -241 -253 -507 -512 -258
-251 -559 -544 -667 -650 l-197 -194 154 -892 c84 -491 156 -918 160 -949 20
-162 -86 -345 -242 -417 -73 -33 -203 -42 -280 -20 -28 8 -421 210 -874 448
-453 238 -829 433 -835 433 -6 0 -380 -193 -830 -430 -451 -237 -841 -438
-867 -447 -60 -20 -178 -21 -244 -1 -75 22 -167 88 -213 153 -47 65 -80 163
-80 236 0 29 70 459 155 955 85 496 155 911 155 921 0 10 -271 282 -669 670
-368 358 -681 669 -695 690 -110 166 -89 385 50 524 48 49 134 98 192 111 18
4 443 67 943 139 500 73 914 137 918 142 5 5 194 386 421 846 314 637 423 848
455 885 55 62 136 110 216 128 81 17 92 17 164 4z"/>
</g>
</svg>
